<?xml version="1.0" encoding="UTF-8"?>
<svg width="325px" height="131px" viewBox="0 0 325 131" version="1.1" xmlns="http://www.w3.org/2000/svg" xmlns:xlink="http://www.w3.org/1999/xlink">
    <!-- Generator: Sketch 40.3 (33839) - http://www.bohemiancoding.com/sketch -->
    <title>oop</title>
    <desc>Created with Sketch.</desc>
    <defs></defs>
    <g id="Page-1" stroke="none" stroke-width="1" fill="none" fill-rule="evenodd">
        <path d="M99.2237106,45.0672579 C99.2237106,34.273839 95.0578296,22.1549125 86.5367095,13.6337923 C78.9623804,6.05946324 66.086021,0 49.6118553,0 C33.1376896,0 20.2613302,6.05946324 12.6870012,13.6337923 C4.16588098,22.1549125 0,34.273839 0,45.0672579 C0,55.8606768 4.16588098,67.9796033 12.6870012,76.5007235 C20.2613302,84.0750525 33.1376896,90.1345158 49.6118553,90.1345158 C66.086021,90.1345158 78.9623804,84.0750525 86.5367095,76.5007235 C95.0578296,67.9796033 99.2237106,55.8606768 99.2237106,45.0672579 L99.2237106,45.0672579 Z M49.6118553,23.1017036 C55.8606768,23.1017036 60.9733489,25.1846441 64.9498716,29.1611669 C68.9263944,33.1376896 71.1986931,38.2503617 71.1986931,45.0672579 C71.1986931,51.884154 68.9263944,56.9968261 64.9498716,60.9733489 C60.9733489,64.9498716 55.8606768,67.0328121 49.8012135,67.0328121 C42.6056009,67.0328121 37.682287,64.381797 34.273839,60.9733489 C31.0547491,57.754259 28.0250175,52.8309452 28.0250175,45.0672579 C28.0250175,38.2503617 30.2973162,33.1376896 34.273839,29.1611669 C38.2503617,25.1846441 43.3630338,23.1017036 49.6118553,23.1017036 L49.6118553,23.1017036 Z M211.323781,45.0672579 C211.323781,34.273839 207.1579,22.1549125 198.636779,13.6337923 C191.06245,6.05946324 178.186091,0 161.711925,0 C145.23776,0 132.3614,6.05946324 124.787071,13.6337923 C116.265951,22.1549125 112.10007,34.273839 112.10007,45.0672579 C112.10007,55.8606768 116.265951,67.9796033 124.787071,76.5007235 C132.3614,84.0750525 145.23776,90.1345158 161.711925,90.1345158 C178.186091,90.1345158 191.06245,84.0750525 198.636779,76.5007235 C207.1579,67.9796033 211.323781,55.8606768 211.323781,45.0672579 L211.323781,45.0672579 Z M161.711925,23.1017036 C167.960747,23.1017036 173.073419,25.1846441 177.049942,29.1611669 C181.026464,33.1376896 183.298763,38.2503617 183.298763,45.0672579 C183.298763,51.884154 181.026464,56.9968261 177.049942,60.9733489 C173.073419,64.9498716 167.960747,67.0328121 161.901284,67.0328121 C154.705671,67.0328121 149.782357,64.381797 146.373909,60.9733489 C143.154819,57.754259 140.125088,52.8309452 140.125088,45.0672579 C140.125088,38.2503617 142.397386,33.1376896 146.373909,29.1611669 C150.350432,25.1846441 155.463104,23.1017036 161.711925,23.1017036 L161.711925,23.1017036 Z M255.633606,77.6368728 C258.473979,81.6133956 265.669592,90.1345158 282.522474,90.1345158 C293.694609,90.1345158 302.783804,87.1047841 311.115566,78.7730222 C319.447328,70.4412602 324.56,59.4584831 324.56,44.8778996 C324.56,31.0547491 319.447328,19.5038973 311.872999,11.9295683 C306.570968,6.62753792 297.103057,0 281.954399,0 C275.516219,0 264.533442,1.32550758 255.633606,12.8763594 L255.633606,12.8763594 C255.633606,7.33363738 249.81747,2.8403734 242.638689,2.8403734 L241.360937,2.8403734 C234.184043,2.8403734 228.366021,8.66453002 228.366021,15.844031 L228.366021,117.653519 C228.366021,124.83524 234.182157,130.657176 241.360937,130.657176 L242.638689,130.657176 C249.815583,130.657176 255.633606,124.831409 255.633606,117.653011 L255.633606,77.6368728 Z M280.711925,23.1017036 C286.960747,23.1017036 292.073419,25.1846441 296.049942,29.1611669 C300.026464,33.1376896 302.298763,38.2503617 302.298763,45.0672579 C302.298763,51.884154 300.026464,56.9968261 296.049942,60.9733489 C292.073419,64.9498716 286.960747,67.0328121 280.901284,67.0328121 C273.705671,67.0328121 268.782357,64.381797 265.373909,60.9733489 C262.154819,57.754259 259.125088,52.8309452 259.125088,45.0672579 C259.125088,38.2503617 261.397386,33.1376896 265.373909,29.1611669 C269.350432,25.1846441 274.463104,23.1017036 280.711925,23.1017036 L280.711925,23.1017036 Z" id="oop" fill="#FF0000"></path>
    </g>
</svg>